<svg width="156" height="156" viewBox="0 0 156 156" fill="none" xmlns="http://www.w3.org/2000/svg">
<path d="M50.7008 93.6008C49.6664 93.6008 48.6745 93.1899 47.9431 92.4585C47.2117 91.7271 46.8008 90.7351 46.8008 89.7008C46.8008 88.6664 47.2117 87.6745 47.9431 86.9431C48.6745 86.2117 49.6664 85.8008 50.7008 85.8008H105.301C106.335 85.8008 107.327 86.2117 108.059 86.9431C108.79 87.6745 109.201 88.6664 109.201 89.7008C109.201 90.7351 108.79 91.7271 108.059 92.4585C107.327 93.1899 106.335 93.6008 105.301 93.6008H50.7008Z" fill="#06B050"/>
<path d="M35.1004 7.80078H87.2434C88.8656 7.80008 90.4702 8.13672 91.9553 8.78931C93.4404 9.44191 94.7736 10.3962 95.8702 11.5916L129.519 48.2672C131.5 50.425 132.6 53.2473 132.6 56.1764V111.5H124.8V56.1764C124.799 55.1997 124.432 54.2589 123.771 53.54L90.1216 16.8644C89.7558 16.4656 89.311 16.1473 88.8154 15.9298C88.3199 15.7122 87.7846 15.6002 87.2434 15.6008H35.1004C34.066 15.6008 33.0741 16.0117 32.3427 16.7431C31.6113 17.4745 31.2004 18.4664 31.2004 19.5008V136.501C31.2004 137.535 31.6113 138.527 32.3427 139.259C33.0741 139.99 34.066 140.401 35.1004 140.401H97L101 148.201H35.1004C31.9974 148.201 29.0214 146.968 26.8272 144.774C24.6331 142.58 23.4004 139.604 23.4004 136.501V19.5008C23.4004 16.3977 24.6331 13.4218 26.8272 11.2276C29.0214 9.03346 31.9974 7.80078 35.1004 7.80078Z" fill="#06B050"/>
<path d="M85.8 54.6008H128.7C129.734 54.6008 130.726 55.0117 131.458 55.7431C132.189 56.4745 132.6 57.4664 132.6 58.5008C132.6 59.5351 132.189 60.5271 131.458 61.2585C130.726 61.9899 129.734 62.4008 128.7 62.4008H81.9C80.8657 62.4008 79.8737 61.9899 79.1423 61.2585C78.4109 60.5271 78 59.5351 78 58.5008V11.7008C78 10.6664 78.4109 9.67446 79.1423 8.94306C79.8737 8.21167 80.8657 7.80078 81.9 7.80078C82.9343 7.80078 83.9263 8.21167 84.6577 8.94306C85.3891 9.67446 85.8 10.6664 85.8 11.7008V54.6008Z" fill="#06B050"/>
<g clip-path="url(#clip0_86_462)">
<path d="M107.727 112.545H128.273C133.896 112.545 138.455 117.104 138.455 122.727V143.273C138.455 148.896 133.896 153.455 128.273 153.455H107.727C102.104 153.455 97.5455 148.896 97.5455 143.273V122.727C97.5455 117.104 102.104 112.545 107.727 112.545Z" stroke="#06B050" stroke-width="5.09091"/>
<path d="M113.861 141.276L105.585 132.999" stroke="#06B050" stroke-width="5.09091" stroke-linecap="round" stroke-linejoin="round"/>
<path d="M130.414 124.723L113.861 141.276" stroke="#06B050" stroke-width="5.09091" stroke-linecap="round" stroke-linejoin="round"/>
</g>
<rect x="47" y="109" width="37" height="7" rx="3.5" fill="#06B050"/>
<defs>
<clipPath id="clip0_86_462">
<rect width="46" height="46" fill="white" transform="translate(95 110)"/>
</clipPath>
</defs>
</svg>
