<svg width="520" height="120" viewBox="0 0 520 120" fill="none" xmlns="http://www.w3.org/2000/svg">
<path fill-rule="evenodd" clip-rule="evenodd" d="M17 60.4831C17 29.2884 42.2884 4 73.4831 4C104.678 4 129.966 29.2884 129.966 60.4831C129.966 91.6779 104.678 116.966 73.4831 116.966C42.2884 116.966 17 91.6779 17 60.4831ZM70.2941 50.4143C63.4179 50.9054 60.2251 58.764 60.7165 67.6048H89.2034C91.9048 67.6048 88.537 77.2234 86.2565 77.1824H59.2292L54.5768 107.143L86.7476 90.1981C94.3606 85.5321 101.237 80.8661 101.237 67.6048C101.237 56.3082 91.4136 50.4143 81.8363 50.4143H70.2941ZM105.899 22.9101H65.8699C40.0854 22.9101 29.2801 53.1163 48.4338 63.4306C49.4173 51.6428 56.048 40.8373 69.3092 40.8373H96.5685C104.983 38.7519 105.899 28.0672 105.899 22.9101Z" fill="#00981D"/>
<path d="M293.731 82.4439L293.78 81.0476C293.834 79.4768 294.131 78.497 294.671 78.1081C295.212 77.661 296.145 77.6935 297.47 78.2058C301.854 79.7569 306.553 80.62 311.569 80.7951C315.593 80.9356 318.496 80.571 320.278 79.7013C322.06 78.8315 322.99 77.2913 323.067 75.0805C323.128 73.3352 322.652 71.9206 321.639 70.8368C320.684 69.7549 318.751 68.2603 315.839 66.353L304.02 58.6883C298.31 54.994 295.559 50.1507 295.768 44.1584C295.931 39.5042 297.627 36.0976 300.855 33.9386C304.084 31.7797 308.993 30.8153 315.583 31.0454C320.016 31.2002 324.049 31.9235 327.682 33.2154C329.241 33.7358 330.244 34.2659 330.692 34.8058C331.141 35.3457 331.34 36.3138 331.292 37.71L331.24 39.1936C331.185 40.7644 330.917 41.7452 330.436 42.1362C330.016 42.471 329.084 42.4093 327.64 41.9512C324.008 40.6011 319.889 39.8457 315.282 39.6848C311.782 39.5626 309.231 39.8812 307.628 40.6407C306.083 41.4023 305.276 42.7721 305.207 44.7501C305.159 46.1464 305.497 47.3231 306.223 48.2805C306.948 49.2378 308.368 50.3941 310.481 51.7493L322.638 59.7753C326.35 62.1766 328.953 64.5392 330.449 66.8631C331.946 69.1289 332.635 71.978 332.515 75.4105C332.172 85.2425 325.031 89.9151 311.092 89.4284C305.902 89.2471 301.23 88.4141 297.078 86.9294C295.636 86.4131 294.691 85.8849 294.243 85.3451C293.853 84.8072 293.682 83.8401 293.731 82.4439Z" fill="#00981D"/>
<path d="M354.942 89.5041C350.596 89.5041 347.085 88.6405 344.411 86.9132C341.792 85.186 340.483 82.4836 340.483 78.8062C340.483 77.5804 340.622 76.3268 340.901 75.0453L345.665 52.7301H342.817C341.141 52.7301 339.889 51.187 340.235 49.5466L340.709 47.3016C340.967 46.0814 342.044 45.2081 343.291 45.2081H347.253L349.818 33.0919C350.077 31.8724 351.153 31 352.4 31H356.784C358.461 31 359.713 32.5443 359.365 34.1851L357.031 45.2081H366.398C368.074 45.2081 369.325 46.7513 368.979 48.3917L368.505 50.6366C368.248 51.8569 367.171 52.7301 365.924 52.7301H355.443L351.097 73.0394C350.986 73.5966 350.902 74.1538 350.846 74.7109C350.791 75.2124 350.763 75.686 350.763 76.1318C350.763 78.3605 351.487 79.8927 352.936 80.7285C354.384 81.5643 356.53 81.9822 359.371 81.9822C360.62 81.9822 361.552 83.1317 361.294 84.3536L360.649 87.4106C360.391 88.6309 359.315 89.5041 358.067 89.5041H354.942Z" fill="#00981D"/>
<path d="M400.496 45.2081C403.95 45.2081 406.486 46.1832 408.101 48.1334C409.717 50.0278 410.525 52.3122 410.525 54.9867C410.525 56.2125 410.414 57.299 410.191 58.2462L405.093 81.9822C404.535 84.4895 403.616 86.3839 402.335 87.6654C401.053 88.8912 398.936 89.5041 395.983 89.5041H374.503C371.439 89.5041 369.126 88.6684 367.566 86.9968C366.006 85.2696 365.226 82.8179 365.226 79.642C365.226 78.9177 365.226 78.1655 365.226 77.3854C365.282 76.5496 365.393 75.7139 365.561 74.8781C366.508 70.6992 368.012 67.4954 370.074 65.2667C372.191 63.038 375.339 61.9236 379.518 61.9236H399.576L400.245 59.082C400.412 58.3577 400.496 57.689 400.496 57.0761C400.496 54.1788 398.796 52.7301 395.398 52.7301H377.005C375.328 52.7301 374.077 51.187 374.423 49.5466L374.897 47.3016C375.155 46.0814 376.232 45.2081 377.479 45.2081H400.496ZM381.691 69.4456C380.019 69.4456 378.71 69.8913 377.763 70.7828C376.871 71.6743 376.175 73.2066 375.673 75.3796C375.395 76.4939 375.255 77.469 375.255 78.3048C375.255 80.7564 376.509 81.9822 379.016 81.9822H392.807C394.534 81.9822 395.565 81.1464 395.899 79.4749L397.989 69.4456H381.691Z" fill="#00981D"/>
<path d="M443.584 89.5041C442.738 89.5041 441.943 89.0983 441.447 88.4129L430.62 73.4573C430.174 72.8444 429.728 72.12 429.282 71.2843C428.892 70.4485 428.697 69.4734 428.697 68.3591C428.697 66.7432 429.032 65.3224 429.7 64.0966C430.425 62.8151 431.595 61.4222 433.21 59.9178L448.247 45.9157C448.735 45.461 449.378 45.2081 450.045 45.2081H457.811C459.015 45.2081 459.59 46.6886 458.701 47.501L440.732 63.9295C440.12 64.4867 439.59 65.0717 439.144 65.6846C438.754 66.2418 438.559 66.9104 438.559 67.6904C438.559 68.3034 438.671 68.8884 438.894 69.4456C439.172 69.947 439.507 70.4764 439.897 71.0335L452.328 87.3865C452.988 88.2551 452.369 89.5041 451.278 89.5041H443.584ZM414.489 89.5041C412.811 89.5041 411.559 87.9579 411.908 86.3163L423.238 33.0892C423.497 31.871 424.573 31 425.819 31H430.202C431.88 31 433.132 32.5463 432.783 34.1878L421.453 87.415C421.194 88.6332 420.118 89.5041 418.872 89.5041H414.489Z" fill="#00981D"/>
<path d="M470.628 89.5041C468.009 89.5041 465.808 89.2255 464.025 88.6684C462.242 88.0555 460.793 87.1918 459.679 86.0775C458.565 84.9631 457.757 83.598 457.255 81.9822C456.754 80.3663 456.503 78.5276 456.503 76.4661C456.503 75.0174 456.615 73.4573 456.837 71.7857C457.06 70.1142 457.367 68.3312 457.757 66.4368C458.704 62.0351 459.846 58.4412 461.183 55.6553C462.521 52.8137 464.192 50.585 466.198 48.9691C468.204 47.3533 470.572 46.2389 473.302 45.626C476.088 45.0131 479.375 44.7067 483.164 44.7067C485.894 44.7067 488.402 44.9296 490.686 45.3753C493.026 45.7653 495.032 46.4897 496.704 47.5483C498.431 48.5512 499.768 49.9163 500.715 51.6436C501.663 53.3152 502.136 55.4046 502.136 57.9119C502.136 58.692 502.108 59.5277 502.053 60.4192C501.997 61.255 501.858 62.1465 501.635 63.0937C501.133 65.601 500.186 67.4954 498.793 68.777C497.4 70.0028 495.45 70.6157 492.943 70.6157H467.201C466.811 72.3986 466.616 74.098 466.616 75.7139C466.616 77.664 467.145 79.1963 468.204 80.3106C469.263 81.425 471.296 81.9822 474.305 81.9822H492.698C494.374 81.9822 495.626 83.5253 495.28 85.1657L494.806 87.4106C494.548 88.6309 493.471 89.5041 492.224 89.5041H470.628ZM489.098 63.0937C490.045 63.0937 490.714 62.8151 491.104 62.2579C491.494 61.7007 491.745 61.1157 491.856 60.5028C491.912 60.1685 491.94 59.8063 491.94 59.4163C491.996 59.0263 492.023 58.692 492.023 58.4134C492.023 57.2433 491.745 56.2682 491.188 55.4882C490.686 54.7081 489.99 54.0952 489.098 53.6495C488.262 53.148 487.26 52.7858 486.089 52.563C484.919 52.3401 483.694 52.2286 482.412 52.2286C478.233 52.2286 475.113 53.0923 473.051 54.8195C470.99 56.5468 469.569 59.3049 468.789 63.0937H489.098Z" fill="#00981D"/>
<path d="M147.587 89.5041C145.908 89.5041 144.656 87.9568 145.006 86.3149L154.94 39.7756C155.664 36.4325 156.834 34.1481 158.45 32.9223C160.066 31.6408 162.351 31 165.304 31H200.083C201.757 31 203.009 32.5403 202.665 34.1796L201.932 37.6782C201.676 38.9003 200.598 39.7756 199.35 39.7756H170.151C168.48 39.7756 167.309 40.0542 166.641 40.6114C165.972 41.1686 165.443 42.2829 165.053 43.9545L162.629 55.5717H185.259C186.944 55.5717 188.197 57.1291 187.836 58.7748L187.07 62.2734C186.805 63.4844 185.732 64.3474 184.493 64.3474H160.707L155.802 87.4144C155.543 88.6329 154.467 89.5041 153.221 89.5041H147.587Z" fill="white"/>
<path d="M227.851 45.2081C231.306 45.2081 233.841 46.1832 235.457 48.1334C237.073 50.0278 237.881 52.3122 237.881 54.9867C237.881 56.2125 237.769 57.299 237.546 58.2462L232.448 81.9822C231.891 84.4895 230.972 86.3839 229.69 87.6654C228.409 88.8912 226.291 89.5041 223.338 89.5041H201.859C198.794 89.5041 196.482 88.6684 194.922 86.9968C193.362 85.2696 192.582 82.8179 192.582 79.642C192.582 78.9177 192.582 78.1655 192.582 77.3854C192.637 76.5496 192.749 75.7139 192.916 74.8781C193.863 70.6992 195.368 67.4954 197.429 65.2667C199.547 63.038 202.695 61.9236 206.873 61.9236H226.932L227.601 59.082C227.768 58.3577 227.851 57.689 227.851 57.0761C227.851 54.1788 226.152 52.7301 222.753 52.7301H204.36C202.684 52.7301 201.432 51.187 201.779 49.5466L202.253 47.3016C202.51 46.0814 203.587 45.2081 204.834 45.2081H227.851ZM209.047 69.4456C207.375 69.4456 206.066 69.8913 205.118 70.7828C204.227 71.6743 203.53 73.2066 203.029 75.3796C202.75 76.4939 202.611 77.469 202.611 78.3048C202.611 80.7564 203.865 81.9822 206.372 81.9822H220.162C221.89 81.9822 222.92 81.1464 223.255 79.4749L225.344 69.4456H209.047Z" fill="white"/>
<path d="M246.441 52.7301C246.999 50.2228 247.918 48.3562 249.2 47.1304C250.481 45.8489 252.598 45.2081 255.551 45.2081H270.261C272.434 45.2081 274.44 45.431 276.279 45.8768C278.173 46.2668 279.789 46.9354 281.126 47.8826C282.519 48.7741 283.578 49.9442 284.302 51.3929C285.082 52.7858 285.472 54.4852 285.472 56.4911C285.472 57.104 285.444 57.7726 285.389 58.4969C285.333 59.2213 285.249 59.8342 285.138 60.3356L279.317 87.42C279.056 88.6358 277.981 89.5041 276.738 89.5041H272.353C270.674 89.5041 269.422 87.9561 269.773 86.3139L274.774 62.9265C275.109 61.5336 275.276 60.2799 275.276 59.1656C275.276 57.0483 274.663 55.4603 273.437 54.4017C272.267 53.2873 270.345 52.7301 267.67 52.7301H258.727C257 52.7301 255.969 53.5659 255.635 55.2374L248.807 87.4133C248.549 88.6323 247.473 89.5041 246.226 89.5041H241.847C240.168 89.5041 238.916 87.9565 239.267 86.3144L246.441 52.7301Z" fill="white"/>
</svg>
