<svg width="196" height="196" viewBox="0 0 196 196" fill="none" xmlns="http://www.w3.org/2000/svg">
<ellipse cx="98" cy="134.75" rx="49" ry="20.4167" stroke="#06B050" stroke-width="6" stroke-linejoin="round"/>
<circle cx="98" cy="65.333" r="24.5" stroke="#06B050" stroke-width="6" stroke-linejoin="round"/>
<path fill-rule="evenodd" clip-rule="evenodd" d="M46.9155 111.838C39.4016 112.591 32.6185 114.157 27.1786 116.333C23.2748 117.894 19.9142 119.829 17.4806 122.13C15.0406 124.438 13.333 127.322 13.333 130.668C13.333 134.014 15.0406 136.898 17.4806 139.205C19.9142 141.507 23.2748 143.441 27.1786 145.003C30.0988 146.171 33.406 147.163 37.0055 147.948C35.4598 145.689 34.2992 143.323 33.569 140.874C32.0902 140.431 30.6992 139.949 29.407 139.432C25.9215 138.038 23.3021 136.452 21.6032 134.846C19.9106 133.245 19.333 131.832 19.333 130.668C19.333 129.503 19.9106 128.09 21.6032 126.49C23.3021 124.883 25.9215 123.298 29.407 121.904C32.1442 120.809 35.3243 119.868 38.8448 119.13C41.0298 116.516 43.7462 114.071 46.9155 111.838Z" fill="#06B050"/>
<path fill-rule="evenodd" clip-rule="evenodd" d="M162.43 140.874C161.7 143.323 160.54 145.689 158.994 147.948C162.594 147.163 165.901 146.171 168.821 145.003C172.725 143.441 176.085 141.507 178.519 139.205C180.959 136.898 182.666 134.014 182.666 130.668C182.666 127.322 180.959 124.438 178.519 122.13C176.085 119.829 172.725 117.894 168.821 116.333C163.381 114.157 156.598 112.591 149.084 111.838C152.253 114.071 154.97 116.516 157.155 119.13C160.675 119.868 163.855 120.809 166.593 121.904C170.078 123.298 172.697 124.883 174.396 126.49C176.089 128.09 176.666 129.503 176.666 130.668C176.666 131.832 176.089 133.245 174.396 134.846C172.697 136.452 170.078 138.038 166.593 139.432C165.3 139.949 163.909 140.431 162.43 140.874Z" fill="#06B050"/>
<path fill-rule="evenodd" clip-rule="evenodd" d="M133.409 85.684C132.395 87.4435 131.255 89.1203 129.999 90.7019C132.647 92.0645 135.65 92.8337 138.833 92.8337C149.511 92.8337 158.166 84.1778 158.166 73.5003C158.166 62.8228 149.511 54.167 138.833 54.167C138.319 54.167 137.809 54.1871 137.305 54.2265C137.848 56.1539 138.254 58.1391 138.51 60.1708C138.618 60.1683 138.725 60.167 138.833 60.167C146.197 60.167 152.166 66.1365 152.166 73.5003C152.166 80.8641 146.197 86.8337 138.833 86.8337C136.902 86.8337 135.066 86.4229 133.409 85.684Z" fill="#06B050"/>
<path fill-rule="evenodd" clip-rule="evenodd" d="M58.6947 54.2265C58.1905 54.1871 57.6807 54.167 57.1663 54.167C46.4888 54.167 37.833 62.8228 37.833 73.5003C37.833 84.1778 46.4888 92.8337 57.1663 92.8337C60.3493 92.8337 63.3526 92.0645 66.0004 90.7019C64.7449 89.1203 63.6041 87.4435 62.5907 85.684C60.9336 86.4229 59.0979 86.8337 57.1663 86.8337C49.8025 86.8337 43.833 80.8641 43.833 73.5003C43.833 66.1365 49.8025 60.167 57.1663 60.167C57.2743 60.167 57.3819 60.1683 57.4892 60.1708C57.7456 58.1391 58.1512 56.1539 58.6947 54.2265Z" fill="#06B050"/>
</svg>
